<?xml version="1.0"?>
<svg width="511" height="510.42" xmlns="http://www.w3.org/2000/svg" xmlns:svg="http://www.w3.org/2000/svg" clip-rule="evenodd" fill-rule="evenodd">

 <g class="layer">
  <title>Layer 1</title>
  <path d="m224.44,293.22c-28.24,-25.15 -27.48,-47.55 0,-73.04l225.79,-210.64c23.8,-19.92 60.85,-8.39 60.77,32.19l0,423.76c-2.66,43.51 -39.44,55.73 -64.14,35.31l-222.42,-207.58zm-114.38,216.7l-81.88,0c-15.51,0 -28.18,-12.76 -28.18,-28.21l0,-452.77c0,-15.42 12.76,-28.18 28.18,-28.18l81.88,0c15.46,0 28.21,12.67 28.21,28.18l0,452.77c0,15.54 -12.69,28.21 -28.21,28.21z" fill-rule="nonzero" id="svg_1" transform="rotate(-180, 255.5, 255.211)"/>
 </g>
</svg>